<svg width="276" height="106" viewBox="0 0 276 106" fill="none" xmlns="http://www.w3.org/2000/svg">
<path d="M88 24H1V105H275V24H231.5H188" stroke="#212121"/>
<path d="M128.283 42.2884C128.47 42.5965 128.371 42.9965 128.064 43.183C126.698 44.01 124.601 44.591 123.048 44.6566C122.95 44.6606 122.856 44.643 122.771 44.6079C122.544 44.5133 122.381 44.2951 122.369 44.0343C122.354 43.6755 122.634 43.3715 122.992 43.3566C124.321 43.2998 126.215 42.7796 127.389 42.0695C127.696 41.8823 128.095 41.981 128.283 42.2884ZM121.397 43.389C121.05 43.3161 120.711 43.5384 120.638 43.8843C120.565 44.2309 120.788 44.5707 121.134 44.643C121.48 44.716 121.82 44.4937 121.892 44.1478C121.965 43.8012 121.744 43.4613 121.397 43.389ZM137.552 26.7735C137.79 26.7735 137.993 26.5917 138.015 26.3492C138.136 24.9816 138.094 23.7337 136.333 22.3101C136.134 22.148 135.84 22.1797 135.679 22.3797C135.517 22.579 135.549 22.8723 135.749 23.0337C137.267 24.2607 137.18 25.235 137.088 26.2667C137.065 26.5221 137.255 26.7478 137.511 26.7708C137.524 26.7728 137.538 26.7735 137.552 26.7735ZM139.603 17.511C139.495 17.7441 139.596 18.0204 139.829 18.1285C140.343 18.3664 140.955 18.8015 140.955 19.5238C140.955 19.7805 141.163 19.9886 141.421 19.9886C141.678 19.9886 141.886 19.7805 141.886 19.5238C141.886 18.5772 141.295 17.7813 140.221 17.284C139.988 17.1786 139.711 17.2779 139.603 17.511ZM131.375 32.3314C131.352 32.5868 131.541 32.8124 131.797 32.8354C131.812 32.8367 131.826 32.8374 131.839 32.8374C132.077 32.8374 132.28 32.6557 132.302 32.4131C132.424 31.0456 132.381 29.7977 130.62 28.3748C130.421 28.2126 130.128 28.2437 129.966 28.4437C129.805 28.6437 129.836 28.9362 130.036 29.097C131.553 30.3254 131.467 31.2996 131.375 32.3314ZM124.099 38.5987C124.076 38.8541 124.265 39.0797 124.521 39.1027C124.535 39.1041 124.549 39.1047 124.563 39.1047C124.801 39.1047 125.004 38.923 125.026 38.6804C125.148 37.3129 125.105 36.065 123.344 34.6421C123.145 34.4799 122.852 34.511 122.69 34.711C122.529 34.911 122.56 35.2029 122.76 35.3643C124.277 36.5927 124.191 37.567 124.099 38.5987ZM162.648 7.583C162.362 7.69921 162.035 7.56071 161.919 7.27355C161.787 6.94654 161.31 6.5148 160.577 6.34116C160.12 6.23238 159.225 6.16009 158.407 6.88303C157.55 7.63638 157.402 8.44851 157.246 9.30996C157.144 9.8721 157.038 10.4525 156.725 10.9849C156.358 11.6085 155.907 12.0936 155.39 12.4355C154.161 13.2503 152.557 13.2537 150.828 12.3896C150.214 12.5105 149.67 12.4659 149.155 12.3369C149.662 13.0118 150.171 13.624 150.886 14.2118C152.557 15.5874 154.586 16.2523 156.273 16.0975C155.85 15.3759 155.727 14.5861 155.937 13.9287C156.115 13.3699 156.515 12.9382 157.098 12.6774C158.131 12.2139 159.135 12.7605 159.593 13.5402C160.052 14.3226 160.036 15.4699 158.964 16.2691C158.671 16.4874 158.355 16.6678 158.019 16.8117C158.938 18.3576 159.797 20.1886 158.817 22.1196C158.188 23.3587 156.322 24.5161 154.602 24.9073C154.263 25.7823 153.687 26.4924 152.97 26.9674C152.297 27.4133 151.499 27.6511 150.653 27.6228C150.345 27.612 150.102 27.3532 150.112 27.0444C150.122 26.735 150.382 26.4931 150.691 26.5032C151.942 26.5458 152.802 25.8512 153.289 25.0445C153.171 25.0398 153.057 25.0296 152.945 25.0134C152.017 24.8789 151.423 24.3492 151.27 23.5216C151.136 22.7919 151.381 22.1135 151.926 21.7075C152.441 21.319 153.134 21.2656 153.724 21.5662C154.334 21.877 154.966 22.4831 154.892 23.656C156.134 23.2405 157.412 22.4122 157.817 21.6129C158.585 20.1008 157.799 18.6015 156.911 17.1448C154.821 17.5353 152.273 16.8056 150.174 15.078C149.905 14.8564 149.662 14.6321 149.438 14.4044C149.956 15.3807 150.33 16.5495 149.887 17.3455C149.754 17.5846 149.584 17.7738 149.38 17.9083C148.772 18.311 148.063 18.1238 147.539 17.8785C147.511 18.5245 147.477 19.24 147.439 20.0413C147.179 25.4316 145.445 30.1335 142.285 34.0151C139.935 36.9021 136.402 40.0351 132.834 42.3965C130.414 43.9991 128.113 45.1471 126.181 45.7153C122.938 46.6693 120.765 46.5565 119.018 46.4646C117.52 46.3869 116.438 46.3301 115.227 46.9565C115.22 46.9598 115.213 46.9598 115.206 46.9632C115.158 46.9855 115.109 47.0038 115.055 47.0125C115.051 47.0132 115.049 47.0119 115.045 47.0125C115.023 47.0159 115.001 47.0125 114.979 47.0125C114.94 47.0132 114.901 47.0125 114.863 47.0051C114.839 47.0004 114.816 46.9916 114.793 46.9842C114.758 46.9727 114.724 46.9585 114.692 46.9396C114.671 46.9274 114.651 46.9146 114.632 46.8997C114.602 46.8747 114.574 46.8463 114.547 46.8153C114.537 46.8031 114.523 46.7957 114.514 46.7828C114.509 46.7767 114.508 46.7693 114.504 46.7625C114.499 46.7551 114.493 46.7504 114.488 46.743C113.693 45.3977 113.22 43.9106 113.062 42.2952C113.007 41.7405 112.987 41.1709 113.008 40.5851C113.073 38.7304 113.512 36.7244 114.33 34.5752C115.768 30.8024 118.37 26.712 121.659 23.0574C126.22 17.9873 131.789 14.1354 137.842 11.8342C137.725 11.6443 137.637 11.4484 137.586 11.2464C137.48 10.8187 137.456 9.99777 138.509 9.30118C138.647 9.20929 138.803 9.12146 138.972 9.03767C141.57 7.75597 143.859 8.83633 144.904 9.51198C144.941 9.43158 144.978 9.35726 145.015 9.27888C144.923 8.69782 144.712 8.1019 144.381 7.51679C144.035 6.906 143.579 6.35602 143.087 5.92901C143.032 6.229 142.914 6.51075 142.732 6.7783C142.296 7.42085 141.471 7.71611 140.679 7.51679C139.944 7.33031 139.442 6.77155 139.369 6.05806C139.306 5.42768 139.525 4.85879 139.985 4.45542C140.37 4.11557 140.904 3.93044 141.421 3.94193C140.817 3.02913 139.811 2.40145 138.381 2.75819C138.034 2.84467 137.712 3.06156 137.339 3.31425C136.652 3.77842 135.794 4.35948 134.427 4.25948C133.378 4.18246 132.465 3.62235 131.921 2.72306C131.446 1.93728 131.326 1.00015 131.614 0.336665C131.737 0.0528919 132.067 -0.0768327 132.351 0.0468111C132.634 0.169779 132.764 0.499496 132.641 0.783269C132.519 1.06231 132.562 1.61972 132.879 2.14403C133.086 2.48793 133.574 3.0744 134.509 3.14331C135.488 3.21493 136.08 2.81359 136.711 2.38726C137.132 2.10349 137.57 1.8062 138.11 1.67242C140.221 1.14542 142.125 2.25145 142.906 4.4338C143.846 4.97094 144.741 5.88172 145.356 6.96749C145.516 7.25126 145.647 7.53841 145.761 7.82624C146.904 5.78307 147.914 4.79865 148.627 4.3257C149.343 3.85139 149.851 3.81896 150.091 3.84261C150.797 3.9095 151.712 4.80135 151.976 5.07364C152.096 5.19661 152.151 5.36822 152.128 5.53916C152.105 5.70943 152.005 5.86348 151.857 5.94658C151.85 5.95063 151.722 6.02631 151.511 6.16549C150.916 6.56007 149.412 7.6357 148.328 9.09646C147.941 9.61873 147.747 10.1052 147.67 10.545C147.736 10.5518 147.802 10.5687 147.866 10.5998C148.409 10.8727 148.865 11.0916 149.301 11.2193C149.205 11.0761 149.132 10.9268 149.077 10.7673C148.832 10.0552 149.057 9.34645 149.666 8.91741C150.387 8.41202 151.389 8.44918 152.099 9.01741C152.678 9.4809 152.944 10.0816 152.849 10.7092C152.787 11.1126 152.576 11.4822 152.263 11.7646C153.466 12.1247 154.823 12.0166 155.762 10.4187C155.974 10.0579 156.054 9.61873 156.147 9.11065C156.314 8.19446 156.521 7.05397 157.671 6.04387C158.55 5.27093 159.703 4.98446 160.839 5.25336C161.829 5.48781 162.662 6.11684 162.96 6.85533C163.074 7.14113 162.936 7.46679 162.648 7.583ZM141.969 5.21418C141.833 5.15742 141.697 5.11283 141.564 5.08107C141.323 5.02499 141.029 5.08445 140.813 5.22769C140.781 5.24863 140.751 5.27228 140.723 5.29661C140.537 5.45944 140.456 5.67767 140.483 5.94455C140.517 6.2844 140.824 6.39724 140.954 6.43035C141.234 6.50129 141.606 6.44116 141.806 6.14792C141.943 5.94658 142.063 5.6797 141.969 5.21418ZM153.217 22.5628C153.017 22.4608 152.797 22.4696 152.622 22.5851C152.613 22.5912 152.605 22.5973 152.596 22.604C152.397 22.752 152.315 23.0128 152.372 23.3182C152.415 23.5479 152.536 23.8222 153.106 23.9047C153.296 23.9324 153.508 23.9337 153.732 23.9134C153.91 23.0574 153.594 22.7554 153.217 22.5628ZM157.244 15.5401C157.303 15.6394 157.364 15.7394 157.425 15.8408C157.74 15.7225 158.033 15.5658 158.294 15.3705C158.988 14.853 158.724 14.2719 158.627 14.1064C158.428 13.7672 158.008 13.4956 157.555 13.6983C157.263 13.8294 157.084 14.0152 157.004 14.2672C156.892 14.6199 156.981 15.0955 157.244 15.5401ZM115.423 43.6194C115.907 42.4837 116.618 40.9452 117.649 38.9277C117.659 38.9081 117.669 38.8892 117.679 38.8696C117.834 38.5676 117.994 38.2575 118.163 37.9338C118.338 37.5994 118.524 37.2487 118.715 36.8906C118.808 36.717 118.9 36.5447 118.996 36.365C119.234 35.9238 119.486 35.4853 119.744 35.0495C120.132 34.3955 120.54 33.7468 120.969 33.1063C121.734 31.9652 122.559 30.8476 123.427 29.7605C124.334 28.6227 125.287 27.5187 126.27 26.4566C129.772 22.6696 133.616 19.419 136.901 17.0847C137.396 16.7333 137.879 16.4002 138.345 16.0915C138.467 16.0111 138.597 15.9205 138.731 15.8273C138.974 15.657 139.233 15.4705 139.503 15.2753C139.738 15.105 139.989 14.9239 140.249 14.7402C140.534 14.5381 140.831 14.3321 141.134 14.1314C141.152 14.1199 141.173 14.1064 141.19 14.0949C140.951 14.0273 140.676 13.9267 140.386 13.7976C139.808 13.5416 139.175 13.1726 138.65 12.7308C135.828 13.7665 133.102 15.1422 130.545 16.8347C127.625 18.7677 124.915 21.1136 122.492 23.8067C118.857 27.8464 115.394 33.2766 114.416 38.3615C114.268 39.1264 114.179 39.8824 114.152 40.6256C114.133 41.1479 114.147 41.6627 114.195 42.1702C114.268 42.9634 114.424 43.735 114.676 44.4768C114.736 44.6511 114.797 44.8248 114.868 44.9964C114.907 44.891 114.952 44.7761 114.999 44.6566C115.116 44.3559 115.256 44.012 115.423 43.6194ZM139.212 16.8563C139.127 16.9144 139.044 16.9712 138.963 17.0245C138.552 17.2968 138.127 17.588 137.694 17.8941C137.103 18.7434 137.052 19.9021 137.657 20.8156C137.697 20.8771 137.742 20.9352 137.787 20.9919C138.041 21.3135 138.36 21.5595 138.712 21.7264C139.47 22.0845 140.381 22.0682 141.146 21.6169C141.623 20.667 142.036 19.7704 142.388 18.9528C142.33 18.6028 142.202 18.2589 141.994 17.9448C141.373 17.0083 140.246 16.6063 139.212 16.8563ZM141.699 15.8232C142.067 16.3793 142.667 16.6867 143.287 16.7151C143.631 15.7874 143.851 15.0976 143.96 14.7361C144.071 14.3726 144.184 14.0456 144.301 13.7463C144.304 13.7375 144.308 13.7274 144.312 13.7179C144.311 13.7118 144.31 13.7057 144.309 13.6997C144.304 13.7017 144.3 13.703 144.295 13.7051C143.337 14.0618 142.425 14.6192 141.752 15.0651C141.65 15.1327 141.554 15.2016 141.454 15.2699C141.508 15.4611 141.583 15.6489 141.699 15.8232ZM139.633 23.0898C139.753 23.3587 139.846 23.6344 139.913 23.9141C140.079 23.6236 140.238 23.3371 140.393 23.0527C140.14 23.0919 139.886 23.1033 139.633 23.0898ZM137.226 28.0552C137.815 27.2525 138.36 26.4478 138.864 25.6512C139.025 24.7708 138.863 23.8303 138.331 23.027C138.237 22.8851 138.132 22.7554 138.022 22.6317C137.742 22.3149 137.415 22.0547 137.057 21.8601C135.927 21.246 134.503 21.2581 133.358 22.0155C131.708 23.1074 131.255 25.3384 132.347 26.9883C133.419 28.6072 135.586 29.0707 137.226 28.0552ZM134.047 29.5288C134.282 30.1598 134.399 30.8166 134.401 31.4699C134.953 30.8787 135.478 30.276 135.977 29.6659C135.328 29.7538 134.67 29.7065 134.047 29.5288ZM129.604 35.9231C130.757 35.0076 131.902 33.9874 133.082 32.8219C133.467 31.5753 133.311 30.172 132.537 29.0018C131.304 27.1383 128.916 26.4944 126.939 27.3789C126.079 28.3167 125.241 29.2876 124.44 30.2841C124.123 31.426 124.256 32.6834 124.894 33.7698C124.935 33.8394 124.973 33.911 125.018 33.9793C125.354 34.488 125.779 34.9049 126.256 35.2265C127.235 35.8866 128.442 36.138 129.604 35.9231ZM126.846 36.769C126.914 37.1291 126.933 37.4933 126.916 37.8548C127.003 37.7987 127.085 37.7494 127.173 37.6913C127.477 37.4899 127.779 37.2818 128.079 37.069C127.658 37.0163 127.245 36.9143 126.846 36.769ZM121.654 34.1029C121.054 35.0211 120.492 35.9535 119.983 36.8974C119.671 37.4764 119.382 38.0224 119.111 38.5419C119.035 38.6872 118.961 38.8298 118.888 38.971C118.977 39.1953 119.09 39.4142 119.229 39.6236C119.52 40.0628 119.893 40.4148 120.313 40.6777C120.623 40.8716 120.959 41.0155 121.309 41.1074C121.996 40.6972 122.683 40.3182 123.4 39.923C124.132 39.5189 124.884 39.1 125.666 38.6338C125.912 37.7737 125.841 36.8271 125.406 35.9907C124.902 35.6143 124.451 35.1522 124.084 34.5982C124.079 34.5894 124.074 34.5806 124.069 34.5718C123.344 34.138 122.488 33.9705 121.654 34.1029ZM123.38 33.0874C123.268 32.707 123.198 32.3192 123.169 31.93C122.919 32.2665 122.674 32.605 122.436 32.9462C122.755 32.9611 123.071 33.009 123.38 33.0874ZM130.925 23.3905C130.064 24.1844 129.204 25.0175 128.357 25.883C129.189 25.8222 130.024 25.9485 130.8 26.2471C130.541 25.2958 130.594 24.2972 130.925 23.3905ZM136.124 19.0413C135.556 19.4704 134.976 19.9251 134.387 20.4007C135.005 20.2737 135.637 20.2724 136.246 20.392C136.121 19.9481 136.082 19.49 136.124 19.0413ZM116.515 43.9214C116.76 43.935 117.008 43.9133 117.251 43.8559C117.729 43.4958 118.267 43.1053 118.862 42.6938C119.121 42.2722 119.255 41.7857 119.25 41.2938C118.889 41.0006 118.565 40.6486 118.296 40.2405C118.285 40.2243 118.277 40.2074 118.267 40.1912C117.488 41.7445 116.922 42.9735 116.515 43.9214ZM146.448 17.1914C146.218 17.0157 146.012 16.8353 145.827 16.6522C145.529 16.3577 145.283 16.0556 145.084 15.7543C145.02 15.657 144.961 15.5604 144.906 15.4645C144.836 15.6834 144.746 15.9529 144.639 16.261C144.492 16.6847 144.309 17.188 144.088 17.7563C143.924 18.1779 143.74 18.6339 143.533 19.1211C143.117 20.1041 142.612 21.2075 142.01 22.3858C141.41 23.5601 140.715 24.806 139.917 26.0789C139.335 27.0072 138.698 27.9477 138.003 28.8849C137.045 30.176 135.98 31.4584 134.796 32.6827C134.545 32.9421 134.297 33.1915 134.049 33.4387C132.709 34.7745 131.412 35.9292 130.101 36.9548C129.339 37.5507 128.574 38.1075 127.791 38.6257C127.379 38.8987 126.979 39.1493 126.589 39.3878C125.663 39.9513 124.791 40.4337 123.94 40.9033C123.106 41.3634 122.313 41.8033 121.521 42.2904C121.413 42.3566 121.305 42.4215 121.197 42.4897C120.653 42.8343 120.144 43.1722 119.669 43.4992C118.951 43.9917 118.314 44.4572 117.763 44.8761C117.565 45.0268 117.375 45.1734 117.2 45.3113C117.806 45.2788 118.423 45.3113 119.078 45.3457C120.739 45.4322 122.806 45.5403 125.866 44.6403C127.692 44.1032 129.889 43.0039 132.218 41.4628C135.696 39.1601 139.135 36.1116 141.417 33.3077C144.423 29.6153 146.073 25.133 146.321 19.9872C146.37 18.965 146.414 18.0299 146.448 17.1914ZM147.633 13.6895C147.597 13.649 147.562 13.6078 147.528 13.5713C147.183 13.2031 146.885 12.726 146.7 12.1767C146.638 11.9909 146.589 11.7977 146.556 11.5964C146.553 11.5815 146.551 11.5666 146.549 11.5518C146.406 10.618 146.606 9.53563 147.427 8.42824C148.472 7.01951 149.824 5.9628 150.662 5.38512C150.372 5.14661 150.103 4.97162 149.982 4.95608C149.914 4.94932 149.648 4.99054 149.244 5.25809C148.649 5.652 147.51 6.71277 146.161 9.47752C145.992 9.82413 145.82 10.1937 145.645 10.5957C145.61 10.6768 145.556 10.7471 145.491 10.8025C145.423 10.8592 145.342 10.8998 145.253 10.9194C145.145 10.9437 145.035 10.9308 144.933 10.8923C144.871 10.8687 144.812 10.8376 144.761 10.793C144.741 10.7754 144.622 10.6754 144.428 10.541C143.667 10.0153 141.697 8.94173 139.467 10.043C139.34 10.1059 139.225 10.1707 139.126 10.2363C138.577 10.5991 138.644 10.8626 138.672 10.9754C138.71 11.1275 138.803 11.2835 138.928 11.4389C139.167 11.7355 139.536 12.0288 139.938 12.2842C140.033 12.3443 140.13 12.397 140.226 12.4517L140.227 12.4511C140.833 12.7983 141.455 13.0456 141.772 13.0754C141.855 13.0835 141.94 13.0835 142.023 13.0821C142.092 13.0801 142.16 13.0767 142.229 13.07C142.673 13.0287 143.111 12.8889 143.476 12.7166C143.479 12.7166 143.481 12.7173 143.483 12.7173C143.666 12.6315 143.831 12.5396 143.967 12.449C144.094 12.3652 144.191 12.2889 144.266 12.222C144.335 12.1612 144.386 12.1078 144.421 12.0666C144.456 12.0254 144.495 11.9909 144.538 11.9626C144.7 11.8558 144.909 11.8376 145.09 11.9247C145.161 11.9592 145.218 12.0099 145.267 12.0673C145.376 12.1943 145.43 12.3639 145.397 12.5362C145.391 12.5659 145.35 12.8227 145.376 13.2098C145.373 13.2125 145.371 13.2145 145.368 13.2166C145.372 13.2787 145.375 13.3368 145.383 13.4057C145.399 13.5436 145.427 13.6949 145.466 13.8544C145.591 14.3753 145.849 14.9901 146.371 15.5942C146.41 15.6401 146.457 15.6847 146.499 15.7307C146.774 16.0239 147.106 16.3124 147.523 16.582C147.547 16.5975 147.567 16.6083 147.591 16.6225C148.372 17.111 148.67 17.0326 148.762 16.9718C148.814 16.9374 148.864 16.8786 148.908 16.7975C149.22 16.2394 148.364 14.5402 147.633 13.6895ZM151.74 10.539C151.782 10.2626 151.577 10.0336 151.398 9.89034C151.038 9.60184 150.586 9.63225 150.309 9.83156C150.011 10.0417 150.104 10.3126 150.134 10.4018C150.203 10.5998 150.361 10.8464 150.973 11.1977C151.052 11.1727 151.133 11.1437 151.217 11.1106C151.499 11.0011 151.703 10.7761 151.74 10.539Z" fill="#212121"/>
<path d="M32.26 85.518H33.092C33.768 85.0327 34.288 84.4867 34.652 83.88C35.0333 83.256 35.3713 82.0947 35.666 80.396C35.978 78.6973 36.2467 76.1493 36.472 72.752L36.94 65.94H44.87V85.518H46.586V90.614H45.026L44.844 87H34.002L33.82 90.614H32.26V85.518ZM42.894 85.518V67.448H38.682L38.292 73.194C38.084 76.5047 37.824 78.9833 37.512 80.63C37.2173 82.2767 36.8967 83.386 36.55 83.958C36.2033 84.5127 35.718 85.0327 35.094 85.518H42.894ZM48.8192 88.17L49.5212 88.196C50.4398 88.196 51.0985 88.0747 51.4972 87.832C51.9132 87.6067 52.1732 87.2513 52.2772 86.766C52.3985 86.2633 52.4765 85.4573 52.5112 84.348L48.0132 65.94H49.9372L52.0952 75.378L53.4992 82.164L54.7212 75.378L56.6452 65.94H58.5692L54.5392 84.452L54.3832 85.18C54.1058 86.5147 53.8545 87.4593 53.6292 88.014C53.4038 88.586 52.9965 89.0107 52.4072 89.288C51.8178 89.5827 50.8992 89.73 49.6512 89.73L48.7932 89.704L48.8192 88.17ZM60.887 65.94H62.863V85.518H67.491V65.94H69.493V85.518H73.939V65.94H75.941V87H60.887V65.94ZM79.5739 65.94H81.3419V82.632L88.1539 65.94H89.6879V87H87.9199V70.23L81.1339 87H79.5739V65.94ZM98.2496 87.26C96.2736 87.26 94.887 86.6793 94.0896 85.518C93.3096 84.3567 92.9196 82.7447 92.9196 80.682V72.31C92.9196 70.1953 93.3096 68.5747 94.0896 67.448C94.887 66.304 96.2736 65.732 98.2496 65.732C100.052 65.732 101.335 66.2433 102.098 67.266C102.86 68.2887 103.242 69.7707 103.242 71.712V72.986H101.37V71.764C101.37 70.7587 101.292 69.944 101.136 69.32C100.98 68.6787 100.676 68.1847 100.226 67.838C99.775 67.4913 99.125 67.318 98.2756 67.318C97.357 67.318 96.655 67.5087 96.1696 67.89C95.6843 68.2713 95.355 68.8 95.1816 69.476C95.0083 70.1347 94.9216 70.984 94.9216 72.024V80.994C94.9216 82.6233 95.1643 83.8107 95.6496 84.556C96.1523 85.3013 97.0276 85.674 98.2756 85.674C99.5063 85.674 100.33 85.3013 100.746 84.556C101.162 83.7933 101.37 82.6407 101.37 81.098V79.72H103.242V80.968C103.242 82.9787 102.869 84.53 102.124 85.622C101.378 86.714 100.087 87.26 98.2496 87.26ZM108.936 67.474H104.958V65.94H114.786V67.474H110.912V87H108.936V67.474ZM117.076 65.94H119.078V74.78H120.872C122.952 74.78 124.477 75.274 125.448 76.262C126.419 77.2327 126.904 78.8013 126.904 80.968C126.904 82.9267 126.427 84.426 125.474 85.466C124.521 86.4887 123.013 87 120.95 87H117.076V65.94ZM129.426 65.94H131.402V87H129.426V65.94ZM120.95 85.492C122.406 85.492 123.437 85.1453 124.044 84.452C124.668 83.7413 124.98 82.5713 124.98 80.942C124.98 79.3647 124.668 78.1947 124.044 77.432C123.437 76.6693 122.406 76.288 120.95 76.288H119.078V85.492H120.95ZM135.052 65.94H136.82V82.632L143.632 65.94H145.166V87H143.398V70.23L136.612 87H135.052V65.94ZM140.226 64.328C139.221 64.328 138.458 64.0593 137.938 63.522C137.418 62.9847 137.141 62.2133 137.106 61.208H138.328C138.346 62.5253 138.978 63.184 140.226 63.184C141.457 63.184 142.107 62.5253 142.176 61.208H143.372C143.355 62.196 143.078 62.9673 142.54 63.522C142.003 64.0593 141.232 64.328 140.226 64.328ZM154.147 65.94H161.609V67.474H156.123V87H154.147V65.94ZM168.889 87.26C166.913 87.26 165.509 86.6967 164.677 85.57C163.862 84.4433 163.455 82.8487 163.455 80.786V72.05C163.455 70.0047 163.871 68.4447 164.703 67.37C165.535 66.278 166.93 65.732 168.889 65.732C170.813 65.732 172.191 66.278 173.023 67.37C173.855 68.462 174.271 70.022 174.271 72.05V80.812C174.271 82.8747 173.863 84.4693 173.049 85.596C172.234 86.7053 170.847 87.26 168.889 87.26ZM168.889 85.674C170.171 85.674 171.055 85.3013 171.541 84.556C172.026 83.7933 172.269 82.684 172.269 81.228V71.686C172.269 70.23 172.026 69.138 171.541 68.41C171.073 67.682 170.189 67.318 168.889 67.318C167.571 67.318 166.67 67.682 166.185 68.41C165.699 69.1207 165.457 70.2127 165.457 71.686V81.228C165.457 82.7013 165.699 83.8107 166.185 84.556C166.67 85.3013 167.571 85.674 168.889 85.674ZM177.557 65.94H182.601C184.386 65.94 185.66 66.4253 186.423 67.396C187.203 68.3667 187.593 69.7447 187.593 71.53C187.593 73.1593 187.186 74.4853 186.371 75.508C185.574 76.5307 184.326 77.042 182.627 77.042H179.533V87H177.557V65.94ZM182.055 75.56C183.355 75.56 184.274 75.2653 184.811 74.676C185.366 74.0693 185.643 73.0207 185.643 71.53C185.643 70.438 185.539 69.606 185.331 69.034C185.123 68.4447 184.768 68.0287 184.265 67.786C183.762 67.5433 183.034 67.422 182.081 67.422H179.533V75.56H182.055ZM195.117 87.26C193.141 87.26 191.737 86.6967 190.905 85.57C190.091 84.4433 189.683 82.8487 189.683 80.786V72.05C189.683 70.0047 190.099 68.4447 190.931 67.37C191.763 66.278 193.159 65.732 195.117 65.732C197.041 65.732 198.419 66.278 199.251 67.37C200.083 68.462 200.499 70.022 200.499 72.05V80.812C200.499 82.8747 200.092 84.4693 199.277 85.596C198.463 86.7053 197.076 87.26 195.117 87.26ZM195.117 85.674C196.4 85.674 197.284 85.3013 197.769 84.556C198.255 83.7933 198.497 82.684 198.497 81.228V71.686C198.497 70.23 198.255 69.138 197.769 68.41C197.301 67.682 196.417 67.318 195.117 67.318C193.8 67.318 192.899 67.682 192.413 68.41C191.928 69.1207 191.685 70.2127 191.685 71.686V81.228C191.685 82.7013 191.928 83.8107 192.413 84.556C192.899 85.3013 193.8 85.674 195.117 85.674ZM203.785 65.94H205.761V85.518H210.389V65.94H212.391V85.518H216.837V65.94H218.839V87H203.785V65.94ZM222.472 65.94H230.09V67.474H224.474V75.378H229.05V76.834H224.474V85.518H230.142V87H222.472V65.94ZM232.832 65.94H234.834V75.612H236.316L240.632 65.94H242.634L238.058 76.08L243.336 87H241.334L236.342 76.678H234.834V87H232.832V65.94Z" fill="#212121"/>
</svg>
