<svg xmlns="http://www.w3.org/2000/svg" width="274" height="105" fill="none" xmlns:v="https://vecta.io/nano"><path stroke="#212121" d="M.5 24.5h273v80H.5z"/><path fill="#fff" d="M87 0h100v56H87z"/><path d="M127.283 42.288a.65.65 0 0 1-.219.895c-1.366.827-3.463 1.408-5.016 1.474-.098.004-.192-.014-.277-.049-.227-.095-.39-.313-.402-.574a.65.65 0 0 1 .623-.678c1.329-.057 3.223-.577 4.397-1.287a.65.65 0 0 1 .894.219zm-6.886 1.101a.641.641 0 1 0-.263 1.254.641.641 0 1 0 .263-1.254zm16.155-16.616c.238 0 .441-.182.463-.424.121-1.368.079-2.616-1.682-4.039-.199-.162-.493-.13-.654.07s-.13.493.07.654c1.518 1.227 1.431 2.201 1.339 3.233-.023.255.167.481.423.504.013.002.027.003.041.003zm2.051-9.262c-.108.233-.007.509.226.617.514.238 1.126.673 1.126 1.395 0 .257.208.465.466.465s.465-.208.465-.465c0-.947-.591-1.742-1.665-2.24a.47.47 0 0 0-.618.227zm-8.228 14.82c-.023.255.166.481.422.504l.042.002c.238 0 .441-.182.463-.424.122-1.367.079-2.615-1.682-4.038-.199-.162-.492-.131-.654.069s-.13.492.07.653c1.517 1.228 1.431 2.203 1.339 3.234zm-7.276 6.267c-.023.255.166.481.422.504a.42.42 0 0 0 .042.002c.238 0 .441-.182.463-.424.122-1.367.079-2.615-1.682-4.038-.199-.162-.492-.131-.654.069s-.13.492.07.653c1.517 1.228 1.431 2.203 1.339 3.234zm38.549-31.016a.56.56 0 0 1-.729-.309c-.132-.327-.609-.759-1.342-.932a2.38 2.38 0 0 0-2.17.542c-.857.753-1.005 1.565-1.161 2.427-.102.562-.208 1.143-.521 1.675-.367.624-.818 1.109-1.335 1.451-1.229.815-2.833.818-4.562-.046-.614.121-1.158.076-1.673-.053.507.675 1.016 1.287 1.731 1.875 1.671 1.376 3.7 2.041 5.387 1.886-.423-.722-.546-1.511-.336-2.169.178-.559.578-.99 1.161-1.251 1.033-.463 2.037.083 2.495.863s.443 1.93-.629 2.729a4.62 4.62 0 0 1-.945.543c.919 1.546 1.778 3.377.798 5.308-.629 1.239-2.495 2.397-4.215 2.788-.339.875-.915 1.585-1.632 2.06-.673.446-1.471.684-2.317.655a.56.56 0 1 1 .038-1.12c1.251.043 2.111-.652 2.598-1.459a3.32 3.32 0 0 1-.344-.031c-.928-.134-1.522-.664-1.675-1.492-.134-.73.111-1.408.656-1.814.515-.389 1.208-.442 1.798-.141.61.311 1.242.917 1.168 2.09 1.242-.415 2.52-1.244 2.925-2.043.768-1.512-.018-3.011-.906-4.468-2.09.39-4.638-.339-6.737-2.067-.269-.222-.512-.446-.736-.674.518.976.892 2.145.449 2.941a1.58 1.58 0 0 1-.507.563c-.608.403-1.317.215-1.841-.03l-.1 2.163c-.26 5.39-1.994 10.092-5.154 13.974-2.35 2.887-5.883 6.02-9.451 8.381-2.42 1.603-4.721 2.751-6.653 3.319-3.243.954-5.416.841-7.163.749-1.498-.078-2.58-.134-3.791.492-.007.003-.014.003-.021.007a.57.57 0 0 1-.151.049c-.032.003-.054 0-.076 0a.56.56 0 0 1-.116-.007c-.024-.005-.047-.014-.07-.021a.51.51 0 0 1-.101-.045.48.48 0 0 1-.06-.04.75.75 0 0 1-.085-.084c-.01-.012-.024-.02-.033-.032-.005-.006-.006-.014-.01-.02s-.011-.012-.016-.02c-.795-1.345-1.268-2.832-1.426-4.448-.055-.555-.075-1.124-.054-1.71.065-1.855.504-3.861 1.322-6.01 1.438-3.773 4.04-7.863 7.329-11.518 4.561-5.07 10.13-8.922 16.183-11.223a2.11 2.11 0 0 1-.256-.588c-.106-.428-.13-1.249.923-1.945a4.23 4.23 0 0 1 .463-.264c2.598-1.282 4.887-.201 5.932.474l.111-.233c-.092-.581-.303-1.177-.634-1.762a6.14 6.14 0 0 0-1.294-1.588 2.2 2.2 0 0 1-.355.849c-.436.643-1.261.938-2.053.738-.735-.186-1.237-.745-1.31-1.459a1.83 1.83 0 0 1 .616-1.603c.385-.34.919-.525 1.436-.513-.604-.913-1.61-1.54-3.04-1.184-.347.086-.669.303-1.042.556-.687.464-1.545 1.045-2.912.945-1.049-.077-1.962-.637-2.506-1.536-.475-.786-.595-1.723-.307-2.386a.56.56 0 0 1 .737-.29.56.56 0 0 1 .29.736c-.122.279-.079.836.238 1.361.207.344.695.93 1.63.999.979.072 1.571-.33 2.202-.756.421-.284.859-.581 1.399-.715 2.111-.527 4.015.579 4.796 2.761.94.537 1.835 1.448 2.45 2.534a6.94 6.94 0 0 1 .405.859c1.143-2.043 2.153-3.028 2.866-3.501s1.224-.507 1.464-.483c.706.067 1.621.959 1.885 1.231a.56.56 0 0 1 .152.466c-.023.17-.123.324-.271.407a8.72 8.72 0 0 0-.346.219c-.595.395-2.099 1.47-3.183 2.931-.387.522-.581 1.009-.658 1.449a.58.58 0 0 1 .196.055c.543.273.999.492 1.435.62-.096-.143-.169-.293-.224-.452-.245-.712-.02-1.421.589-1.85.721-.505 1.723-.468 2.433.1.579.463.845 1.064.75 1.692-.062.403-.273.773-.586 1.055 1.203.36 2.56.252 3.499-1.346.212-.361.292-.8.385-1.308.167-.916.374-2.057 1.524-3.067a3.51 3.51 0 0 1 3.168-.791c.99.234 1.823.863 2.121 1.602a.56.56 0 0 1-.312.728zm-20.679-2.369a2.66 2.66 0 0 0-.405-.133 1.01 1.01 0 0 0-.751.147.89.89 0 0 0-.09.069c-.186.163-.267.381-.24.648.034.34.341.453.471.486.28.071.652.011.852-.282.137-.201.257-.468.163-.934zm11.248 17.349c-.2-.102-.42-.093-.595.022a.43.43 0 0 0-.026.019c-.199.148-.281.409-.224.714.043.23.164.504.734.586a2.7 2.7 0 0 0 .626.009c.178-.856-.138-1.158-.515-1.351zm4.027-7.023l.181.301a3.5 3.5 0 0 0 .869-.47c.694-.518.43-1.099.333-1.264-.199-.339-.619-.611-1.072-.408-.292.131-.471.317-.551.569-.112.353-.023.828.24 1.273zm-41.821 28.079c.484-1.136 1.195-2.674 2.226-4.692l.03-.058.484-.936.552-1.043.281-.526a37.49 37.49 0 0 1 .748-1.315 41.73 41.73 0 0 1 1.225-1.943 49.99 49.99 0 0 1 2.458-3.346 59.11 59.11 0 0 1 2.843-3.304 70.67 70.67 0 0 1 10.631-9.372c.495-.351.978-.684 1.444-.993.122-.08.252-.171.386-.264l.772-.552.746-.535.885-.609.056-.036a6.11 6.11 0 0 1-.804-.297 7.47 7.47 0 0 1-1.736-1.067c-2.822 1.036-5.548 2.411-8.105 4.104-2.92 1.933-5.63 4.279-8.053 6.972-3.635 4.04-7.098 9.47-8.076 14.555a14.74 14.74 0 0 0-.264 2.264c-.019.522-.005 1.037.043 1.545a10 10 0 0 0 .481 2.307 9.09 9.09 0 0 0 .192.52l.131-.34c.117-.301.257-.645.424-1.037zm23.789-26.763l-.249.168a51.06 51.06 0 0 0-1.269.87 2.6 2.6 0 0 0-.037 2.921 2.33 2.33 0 0 0 .13.176c.254.322.573.568.925.735a2.6 2.6 0 0 0 2.434-.11c.477-.95.89-1.847 1.242-2.664-.058-.35-.186-.694-.394-1.008-.621-.937-1.748-1.338-2.782-1.088zm2.487-1.033c.368.556.968.863 1.588.892a34.5 34.5 0 0 0 .673-1.979c.111-.364.224-.691.341-.99.003-.009.007-.019.011-.028-.008-.016-.012-.015-.017-.013-.958.357-1.87.914-2.543 1.36l-.298.205a1.93 1.93 0 0 0 .245.553zm-2.066 7.267a4.72 4.72 0 0 1 .28.824l.48-.861c-.253.039-.507.051-.76.037zm-2.407 4.965a42.19 42.19 0 0 0 1.638-2.404 3.57 3.57 0 0 0-.533-2.624 3.53 3.53 0 0 0-.309-.395 3.56 3.56 0 0 0-.965-.772c-1.13-.614-2.554-.602-3.699.155-1.65 1.092-2.103 3.323-1.011 4.973a3.59 3.59 0 0 0 4.879 1.067zm-3.179 1.474a5.61 5.61 0 0 1 .354 1.941 36.5 36.5 0 0 0 1.576-1.804 4.73 4.73 0 0 1-1.93-.137zm-4.443 6.394c1.153-.916 2.298-1.936 3.478-3.101a4.5 4.5 0 0 0-.545-3.82c-1.233-1.863-3.621-2.507-5.598-1.623-.86.938-1.698 1.909-2.499 2.905-.317 1.142-.184 2.399.454 3.486.041.07.079.141.124.21a4.48 4.48 0 0 0 1.238 1.247 4.53 4.53 0 0 0 3.348.697zm-2.758.846c.068.36.087.724.07 1.086l.257-.163c.304-.201.606-.41.906-.622a5.69 5.69 0 0 1-1.233-.3zm-5.192-2.666a38.87 38.87 0 0 0-1.671 2.794l-.872 1.645-.223.429a3.54 3.54 0 0 0 .341.653c.291.439.664.791 1.084 1.054a3.6 3.6 0 0 0 .996.43 69.15 69.15 0 0 1 2.091-1.184l2.266-1.289c.246-.86.175-1.807-.26-2.643-.504-.376-.955-.838-1.322-1.392l-.015-.026a3.61 3.61 0 0 0-2.415-.469zm1.726-1.015a5.56 5.56 0 0 1-.211-1.157l-.733 1.016c.319.015.635.063.944.141zm7.545-9.697a70.32 70.32 0 0 0-2.568 2.492 5.66 5.66 0 0 1 2.443.364 4.72 4.72 0 0 1 .125-2.857zm5.199-4.349c-.568.429-1.148.884-1.737 1.359a4.72 4.72 0 0 1 1.859-.009 3.71 3.71 0 0 1-.122-1.351zm-19.609 24.88a2.58 2.58 0 0 0 .736-.066 49.04 49.04 0 0 1 1.611-1.162c.259-.422.393-.908.388-1.4a4.66 4.66 0 0 1-.954-1.053c-.011-.016-.019-.033-.029-.049a70.05 70.05 0 0 0-1.752 3.73zm29.933-26.73a6.48 6.48 0 0 1-.621-.539c-.298-.294-.544-.597-.743-.898a5.56 5.56 0 0 1-.178-.29l-.267.797a43.3 43.3 0 0 1-.551 1.495 47.78 47.78 0 0 1-.555 1.365 50.18 50.18 0 0 1-1.523 3.265 48.55 48.55 0 0 1-2.093 3.693 43.54 43.54 0 0 1-1.914 2.806c-.958 1.291-2.023 2.574-3.207 3.798l-.747.756a43.74 43.74 0 0 1-3.948 3.516 36.01 36.01 0 0 1-2.31 1.671 38.89 38.89 0 0 1-1.202.762 70.1 70.1 0 0 1-2.649 1.516c-.834.46-1.627.9-2.419 1.387l-.324.199c-.544.345-1.053.682-1.528 1.01a48.18 48.18 0 0 0-1.906 1.377l-.563.435c.606-.033 1.223 0 1.878.034 1.661.087 3.728.195 6.788-.705 1.826-.537 4.023-1.636 6.352-3.178 3.478-2.303 6.917-5.351 9.199-8.155 3.006-3.692 4.656-8.175 4.904-13.32l.127-2.796zm1.185-3.502l-.105-.118a3.85 3.85 0 0 1-.828-1.395c-.062-.186-.111-.379-.144-.58a.7.7 0 0 1-.007-.045c-.143-.934.057-2.016.878-3.124 1.045-1.409 2.397-2.465 3.235-3.043-.29-.239-.559-.413-.68-.429-.068-.007-.334.034-.738.302-.595.394-1.734 1.455-3.083 4.219a28.69 28.69 0 0 0-.516 1.118.57.57 0 0 1-.154.207.56.56 0 0 1-.238.117c-.108.024-.218.011-.32-.027a.56.56 0 0 1-.172-.099 4.21 4.21 0 0 0-.333-.252c-.761-.526-2.731-1.599-4.961-.498a3.29 3.29 0 0 0-.341.193c-.549.363-.482.626-.454.739.038.152.131.308.256.463.239.297.608.59 1.01.845.095.06.192.113.288.168l.001-.001c.606.347 1.228.595 1.545.624.083.008.168.008.251.007.069-.002.137-.005.206-.012a3.82 3.82 0 0 0 1.247-.353 3.39 3.39 0 0 0 .491-.268 2.59 2.59 0 0 0 .299-.227 1.59 1.59 0 0 0 .155-.155.55.55 0 0 1 .117-.104.56.56 0 0 1 .552-.038.55.55 0 0 1 .177.143.56.56 0 0 1 .13.469 2.97 2.97 0 0 0-.021.674 1.07 1.07 0 0 0 .007.196 3.71 3.71 0 0 0 .083.449c.125.521.383 1.136.905 1.74.039.046.086.09.128.136a5.43 5.43 0 0 0 1.024.851c.024.015.044.026.068.04.781.489 1.079.41 1.171.349a.48.48 0 0 0 .146-.174c.312-.558-.544-2.257-1.275-3.108zm4.107-3.151c.042-.276-.163-.505-.342-.649-.36-.289-.812-.258-1.089-.059-.298.21-.205.481-.175.57.069.198.227.445.839.796a3.76 3.76 0 0 0 .244-.087c.282-.11.486-.335.523-.572zM31.26 85.518h.832c.676-.485 1.196-1.031 1.56-1.638.381-.624.719-1.785 1.014-3.484.312-1.699.581-4.247.806-7.644l.468-6.812h7.93v19.578h1.716v5.096h-1.56L43.844 87H33.002l-.182 3.614h-1.56v-5.096zm10.634 0v-18.07h-4.212l-.39 5.746-.78 7.436c-.295 1.647-.615 2.756-.962 3.328-.347.555-.832 1.075-1.456 1.56h7.8zm5.925 2.652l.702.026c.919 0 1.577-.121 1.976-.364a1.51 1.51 0 0 0 .78-1.066c.121-.503.199-1.309.234-2.418L47.013 65.94h1.924l2.158 9.438 1.404 6.786 1.222-6.786 1.924-9.438h1.924l-4.03 18.512-.156.728c-.277 1.335-.529 2.279-.754 2.834-.225.572-.633.997-1.222 1.274-.589.295-1.508.442-2.756.442l-.858-.026.026-1.534zm12.068-22.23h1.976v19.578h4.628V65.94h2.002v19.578h4.446V65.94h2.002V87H59.887V65.94zm18.687 0h1.768v16.692l6.812-16.692h1.534V87H86.92V70.23L80.134 87h-1.56V65.94zM97.25 87.26c-1.976 0-3.363-.581-4.16-1.742-.78-1.161-1.17-2.773-1.17-4.836V72.31c0-2.115.39-3.735 1.17-4.862.797-1.144 2.184-1.716 4.16-1.716 1.803 0 3.085.511 3.848 1.534s1.144 2.505 1.144 4.446v1.274h-1.872v-1.222c0-1.005-.078-1.82-.234-2.444-.156-.641-.46-1.135-.91-1.482s-1.101-.52-1.95-.52c-.919 0-1.621.191-2.106.572s-.815.91-.988 1.586c-.173.659-.26 1.508-.26 2.548v8.97c0 1.629.243 2.817.728 3.562.503.745 1.378 1.118 2.626 1.118 1.231 0 2.054-.373 2.47-1.118.416-.763.624-1.915.624-3.458V79.72h1.872v1.248c0 2.011-.373 3.562-1.118 4.654s-2.037 1.638-3.874 1.638zm10.686-19.786h-3.978V65.94h9.828v1.534h-3.874V87h-1.976V67.474zm8.14-1.534h2.002v8.84h1.794c2.08 0 3.605.494 4.576 1.482.971.971 1.456 2.539 1.456 4.706 0 1.959-.477 3.458-1.43 4.498-.953 1.023-2.461 1.534-4.524 1.534h-3.874V65.94zm12.35 0h1.976V87h-1.976V65.94zm-8.476 19.552c1.456 0 2.487-.347 3.094-1.04.624-.711.936-1.881.936-3.51 0-1.577-.312-2.747-.936-3.51-.607-.763-1.638-1.144-3.094-1.144h-1.872v9.204h1.872zm14.102-19.552h1.768v16.692l6.812-16.692h1.534V87h-1.768V70.23L135.612 87h-1.56V65.94zm5.174-1.612c-1.005 0-1.768-.269-2.288-.806s-.797-1.309-.832-2.314h1.222c.018 1.317.65 1.976 1.898 1.976 1.231 0 1.881-.659 1.95-1.976h1.196c-.017.988-.294 1.759-.832 2.314-.537.537-1.308.806-2.314.806zm13.921 1.612h7.462v1.534h-5.486V87h-1.976V65.94zm14.742 21.32c-1.976 0-3.38-.563-4.212-1.69-.815-1.127-1.222-2.721-1.222-4.784V72.05c0-2.045.416-3.605 1.248-4.68.832-1.092 2.227-1.638 4.186-1.638 1.924 0 3.302.546 4.134 1.638s1.248 2.652 1.248 4.68v8.762c0 2.063-.408 3.657-1.222 4.784-.815 1.109-2.202 1.664-4.16 1.664zm0-1.586c1.282 0 2.166-.373 2.652-1.118.485-.763.728-1.872.728-3.328v-9.542c0-1.456-.243-2.548-.728-3.276-.468-.728-1.352-1.092-2.652-1.092-1.318 0-2.219.364-2.704 1.092-.486.711-.728 1.803-.728 3.276v9.542c0 1.473.242 2.583.728 3.328s1.386 1.118 2.704 1.118zm8.668-19.734h5.044c1.785 0 3.059.485 3.822 1.456.78.971 1.17 2.349 1.17 4.134 0 1.629-.407 2.955-1.222 3.978-.797 1.023-2.045 1.534-3.744 1.534h-3.094V87h-1.976V65.94zm4.498 9.62c1.3 0 2.219-.295 2.756-.884.555-.607.832-1.655.832-3.146 0-1.092-.104-1.924-.312-2.496-.208-.589-.563-1.005-1.066-1.248s-1.231-.364-2.184-.364h-2.548v8.138h2.522zm13.062 11.7c-1.976 0-3.38-.563-4.212-1.69-.814-1.127-1.222-2.721-1.222-4.784V72.05c0-2.045.416-3.605 1.248-4.68.832-1.092 2.228-1.638 4.186-1.638 1.924 0 3.302.546 4.134 1.638s1.248 2.652 1.248 4.68v8.762c0 2.063-.407 3.657-1.222 4.784-.814 1.109-2.201 1.664-4.16 1.664zm0-1.586c1.283 0 2.167-.373 2.652-1.118.486-.763.728-1.872.728-3.328v-9.542c0-1.456-.242-2.548-.728-3.276-.468-.728-1.352-1.092-2.652-1.092-1.317 0-2.218.364-2.704 1.092-.485.711-.728 1.803-.728 3.276v9.542c0 1.473.243 2.583.728 3.328s1.387 1.118 2.704 1.118zm8.668-19.734h1.976v19.578h4.628V65.94h2.002v19.578h4.446V65.94h2.002V87h-15.054V65.94zm18.687 0h7.618v1.534h-5.616v7.904h4.576v1.456h-4.576v8.684h5.668V87h-7.67V65.94zm10.36 0h2.002v9.672h1.482l4.316-9.672h2.002l-4.576 10.14L242.336 87h-2.002l-4.992-10.322h-1.508V87h-2.002V65.94z" fill="#212121"/></svg>